<?xml version="1.0" encoding="UTF-8" standalone="no"?>
<!DOCTYPE svg PUBLIC "-//W3C//DTD SVG 1.1//EN" "http://www.w3.org/Graphics/SVG/1.1/DTD/svg11.dtd">
<svg width="100%" height="100%" viewBox="0 0 136 185" version="1.1" xmlns="http://www.w3.org/2000/svg" xmlns:xlink="http://www.w3.org/1999/xlink" xml:space="preserve" xmlns:serif="http://www.serif.com/" style="fill-rule:evenodd;clip-rule:evenodd;stroke-linejoin:round;stroke-miterlimit:2;">
    <g transform="matrix(1,0,0,1,-225.328,-51.5351)">
        <g transform="matrix(1,0,0,1,-227.053,-105.509)">
            <g transform="matrix(0.227624,-0.227916,0.227916,0.227624,327.924,301.449)">
                <g transform="matrix(1,0,0,1,227.053,105.509)">
                    <path d="M346.429,165.56C339.189,158.319 329.541,154.334 319.262,154.342C298.435,154.354 280.866,171.051 280.872,192.719C280.875,202.999 284.863,212.649 292.101,219.886C307.082,234.866 331.431,234.887 346.381,219.937C361.386,204.931 361.408,180.538 346.429,165.56Z" style="fill-rule:nonzero;"/>
                </g>
                <g transform="matrix(1,0,0,1,227.053,105.509)">
                    <path d="M512,0.089L496.995,0.103C389.644,0.205 284.466,45.389 208.397,124.087L59.299,273.184L238.807,452.69L387.896,303.602C425.409,267.446 456.497,222.861 477.808,174.664C518.201,83.308 511.121,9.468 512,0.089ZM270.923,241.066C244.235,214.375 244.242,171.059 270.874,144.431C297.571,117.732 340.89,117.664 367.607,144.382C394.263,171.036 394.242,214.434 367.56,241.117C340.934,267.743 297.583,267.719 270.923,241.066Z" style="fill:white;fill-rule:nonzero;"/>
                </g>
                <g transform="matrix(1,0,0,1,227.053,105.509)">
                    <path d="M389.676,359.505L382.013,351.842L259.984,473.872L298.023,511.912L365.634,444.301L389.676,359.505Z" style="fill:white;fill-rule:nonzero;"/>
                </g>
                <g transform="matrix(1,0,0,1,227.053,105.509)">
                    <path d="M67.617,146.267L0,213.885L38.119,252.007L160.151,129.974L152.488,122.311L67.617,146.267Z" style="fill:white;fill-rule:nonzero;"/>
                </g>
                <g transform="matrix(1,0,0,1,227.053,105.509)">
                    <path d="M34.862,334.072L177.915,477.126L207.233,463.475L48.512,304.757L34.862,334.072Z" style="fill:white;fill-rule:nonzero;"/>
                </g>
            </g>
        </g>
    </g>
</svg>
